<svg width="21" height="21" viewBox="0 0 21 21" fill="none" xmlns="http://www.w3.org/2000/svg">
<path d="M10.25 19.5C15.3586 19.5 19.5 15.3586 19.5 10.25C19.5 5.14137 15.3586 1 10.25 1C5.14137 1 1 5.14137 1 10.25C1 15.3586 5.14137 19.5 10.25 19.5Z" stroke="white" stroke-width="1.5" stroke-linecap="round" stroke-linejoin="round"/>
<path d="M13.0779 12.828C12.5185 13.3875 11.8058 13.7686 11.0298 13.9231C10.2539 14.0775 9.44954 13.9984 8.71857 13.6956C7.98759 13.3929 7.36281 12.8802 6.92323 12.2224C6.48365 11.5646 6.24902 10.7912 6.24902 10C6.24902 9.20883 6.48365 8.43542 6.92323 7.7776C7.36281 7.11977 7.98759 6.60708 8.71857 6.30437C9.44954 6.00165 10.2539 5.92251 11.0298 6.07695C11.8058 6.23139 12.5185 6.61247 13.0779 7.172" stroke="white" stroke-width="1.5" stroke-linecap="round" stroke-linejoin="round"/>
</svg>
