<?xml version="1.0" encoding="UTF-8"?>
<svg id="a" data-name="Layer 1" xmlns="http://www.w3.org/2000/svg" viewBox="0 0 1248.03 264.32">
  <defs>
    <style>
      .b {
        fill: #2d1713;
      }
    </style>
  </defs>
  <path class="b" d="M0,134.27C0,56.79,51.53,4.21,117.79,4.21c22.79,0,51.18,6.31,79.23,17.17v46.98h-2.1c-16.13-24.19-42.42-50.83-75.02-50.83-46.62,0-80.28,52.23-80.28,116.38s37.51,117.09,80.98,117.09c28.04,0,56.44-24.54,74.32-51.18h2.1v47.33c-24.89,9.47-53.28,17.18-80.28,17.18C52.58,264.32,0,211.04,0,134.27Z"/>
  <path class="b" d="M272.39,260.12h-46.98v-1.05c1.75-8.41,7.01-28.39,7.01-48.73v-74.67c0-20.34-5.26-40.31-7.01-48.38v-1.4h39.96v29.09c13.67-23.84,39.96-38.56,70.11-29.09l-4.91,37.16h-1.05c-16.48-14.02-43.12-20.33-64.15,1.4v85.89c0,20.33,5.26,40.31,7.01,48.73v1.05Z"/>
  <path class="b" d="M352.33,210.69c0-39.61,44.17-62.75,95.35-53.99,5.23.7,10.11,1.74,13.96,2.79.04,0,.07-.02.07-.05v-22.36c0-26.99-13.67-40.66-31.2-40.66-22.09,0-56.09,28.39-65.91,41.36h-1.05v-39.57s.01-.04.04-.05c24.88-9.46,49.75-14.36,68.68-14.36,39.26,0,62.75,20.34,62.75,53.64v87.64c0,17.17,8.41,22.79,22.08,17.88l.35,1.05c-4.21,10.86-14.02,17.18-26.29,17.18-15.73,0-26.59-8.72-29.08-24.77,0-.05-.07-.06-.09-.03-10.18,13.63-27.68,26.19-53.56,26.19-35.76,0-56.09-24.89-56.09-51.88ZM424.54,243.99c14.02,0,26.98-7.36,37.15-19.62,0,0,.01-.02.01-.04.16-16,1.93-33.35-12.63-43.92-5.28-3.83-11.5-6.14-17.86-7.43-13.87-1.86-30.82,2.41-38.44,15.33-3.38,5.79-5.39,12.48-5.39,19.2,0,21.38,16.83,36.46,37.16,36.46Z"/>
  <path class="b" d="M532.88,246.09v-39.26h1.4c17.18,19.98,39.26,43.46,65.55,43.46,16.83,0,34.01-9.11,34.01-28.74s-16.48-25.94-45.22-35.76c-35.06-11.92-57.49-23.84-57.49-51.89,0-31.9,28.04-50.13,64.5-50.13,17.53,0,39.61,5.26,59.6,14.73v36.46h-1.05c-17.53-21.03-37.51-38.91-60.65-38.91-17.53,0-34,9.11-34,25.94,0,18.58,18.93,23.84,47.33,33.3,36.46,12.27,54.34,26.64,54.34,54.34,0,36.11-29.8,53.29-63.45,53.29-18.23,0-40.31-5.26-64.85-16.83Z"/>
  <path class="b" d="M703.6,214.54v-115.68h-25.59v-9.46c30.5-9.47,44.52-29.45,54.69-53.29h3.86v49.78h49.08v12.97h-18.31c-16.98,0-30.73,13.79-30.67,30.77l.25,80.71c0,19.98,9.11,29.8,25.59,29.8,8.06,0,19.98-2.45,31.9-10.86-8.76,19.28-26.29,33.65-49.08,33.65-26.99,0-41.72-19.28-41.72-48.38Z"/>
  <path class="b" d="M815.08,22.79c0-12.62,10.87-22.79,23.49-22.79s23.49,10.17,23.49,22.79-10.52,23.14-23.49,23.14-23.49-10.17-23.49-23.14ZM863.46,260.12h-46.97v-1.05c1.75-8.41,7.01-28.39,7.01-48.73l.35-74.67c0-20.34-5.26-40.31-7.01-48.38v-1.4h39.61v124.45c0,20.33,5.26,40.31,7.01,48.73v1.05Z"/>
  <path class="b" d="M941.28,260.12h-46.98v-1.05c1.75-8.41,7.01-28.39,7.01-48.73v-74.67c0-20.34-5.26-40.31-7.01-48.38v-1.4h39.96v29.79c15.42-20.68,34.35-31.9,57.14-31.9,28.39,0,56.79,16.48,56.79,59.95v66.61c0,20.33,5.26,40.31,7.36,48.73v1.05h-47.33v-1.05c1.75-8.41,7.01-28.39,7.01-48.73v-62.75c0-29.45-17.88-41.72-37.16-41.72-15.43,0-29.8,7.36-43.82,20.69v83.78c0,20.33,5.26,40.31,7.01,48.73v1.05Z"/>
  <path class="b" d="M1077.31,172.83c0-56.09,38.21-89.04,85.19-89.04s85.54,32.95,85.54,89.04-38.91,90.09-85.54,90.09-85.19-34-85.19-90.09ZM1211.22,172.83c0-41.71-17.88-77.12-48.73-77.12s-48.38,35.41-48.38,77.12,17.18,77.83,48.38,77.83,48.73-35.76,48.73-77.83Z"/>
</svg>